<svg width="24" height="24" viewBox="0 0 24 24" fill="none" xmlns="http://www.w3.org/2000/svg">
<path d="M15.0004 9.00117C15.796 9.00117 16.5589 8.68504 17.1214 8.12232C17.684 7.5596 18 6.79639 18 6.00059C18 5.20478 17.684 4.44157 17.1214 3.87885C16.5589 3.31613 15.796 3 15.0004 3L9.00132 3C8.20625 3 7.44375 3.31595 6.88155 3.87834C6.31935 4.44073 6.00352 5.20349 6.00352 5.99883C6.00352 6.79417 6.31935 7.55693 6.88155 8.11932C7.44375 8.68171 8.20625 8.99766 9.00132 8.99766C8.20579 8.99766 7.44284 9.31379 6.88031 9.87651C6.31778 10.4392 6.00176 11.2024 6.00176 11.9982C6.00176 12.794 6.31778 13.5573 6.88031 14.12C7.44284 14.6827 8.20579 14.9988 9.00132 14.9988C8.40806 14.9985 7.82802 15.1741 7.33456 15.5035C6.84109 15.833 6.45635 16.3014 6.229 16.8495C6.00165 17.3977 5.9419 18.0009 6.05729 18.5831C6.17269 19.1652 6.45806 19.7 6.87731 20.1199C7.29656 20.5398 7.83086 20.8259 8.41265 20.942C8.99444 21.0581 9.59759 20.9991 10.1458 20.7723C10.6941 20.5455 11.1627 20.1612 11.4926 19.6679C11.8225 19.1747 11.9988 18.5946 11.9991 18.0012V9.00117H15.0004ZM15.0004 9.00117C14.4075 9.00117 13.8279 9.17705 13.3349 9.50657C12.842 9.83608 12.4577 10.3044 12.2308 10.8524C12.0039 11.4004 11.9446 12.0033 12.0602 12.585C12.1759 13.1668 12.4614 13.7011 12.8807 14.1205C13.2999 14.5399 13.8341 14.8255 14.4156 14.9412C14.9971 15.0569 15.5999 14.9975 16.1476 14.7706C16.6954 14.5436 17.1636 14.1592 17.493 13.6661C17.8224 13.1729 17.9982 12.5931 17.9982 12C17.9981 11.2047 17.6823 10.442 17.1201 9.87961C16.5579 9.31724 15.7955 9.00126 15.0004 9.00117Z" fill="#6C6C6C"/>
</svg>
