<svg width="24" height="24" viewBox="0 0 24 24" fill="none" xmlns="http://www.w3.org/2000/svg">
<path d="M6.13361 12.0072L6.29676 13.8784L6.13361 15.8445C6.12517 15.9165 6.07173 15.9712 6.00984 15.9712C5.94796 15.9712 5.8917 15.9165 5.8917 15.8445L5.73418 13.8784L5.8917 12.0072C5.8917 11.9439 5.94515 11.8863 6.00984 11.8863C6.07173 11.8863 6.12517 11.9439 6.13361 12.0072ZM6.73558 10.6945C6.65682 10.6945 6.60337 10.7578 6.59494 10.8384L6.45429 13.8784L6.59494 15.8445C6.60337 15.9252 6.65682 15.9885 6.73558 15.9885C6.80591 15.9885 6.86779 15.9252 6.86779 15.8445L7.03094 13.8784L6.86779 10.8384C6.86779 10.7578 6.80591 10.6945 6.73558 10.6945ZM7.45288 10.0007C7.36568 10.0007 7.3038 10.0641 7.29536 10.1533L7.17159 13.8956L7.29536 15.8474C7.3038 15.9367 7.36568 16 7.45288 16C7.53164 16 7.60197 15.9367 7.60197 15.8474L7.75105 13.8956L7.60197 10.1533C7.60197 10.0641 7.53164 10.0007 7.45288 10.0007ZM3.20253 12.7816C3.16315 12.7816 3.14065 12.8132 3.13221 12.8535L3 13.8784L3.13221 14.8859C3.14065 14.9262 3.16315 14.9579 3.20253 14.9579C3.24191 14.9579 3.26442 14.9262 3.27286 14.8859L3.43038 13.8784L3.27286 12.8535C3.26442 12.8132 3.24191 12.7816 3.20253 12.7816V12.7816ZM3.86639 12.1511C3.827 12.1511 3.79606 12.1828 3.79606 12.2231L3.61603 13.8784L3.79606 15.4933C3.79606 15.5423 3.827 15.5739 3.86639 15.5739C3.90577 15.5739 3.93671 15.5423 3.94515 15.502L4.14768 13.8784L3.94515 12.2231C3.93671 12.1828 3.90577 12.1511 3.86639 12.1511V12.1511ZM4.57806 11.823C4.53024 11.823 4.49086 11.8633 4.48523 11.918L4.32208 13.8784L4.48523 15.7726C4.49367 15.8215 4.53305 15.8618 4.57806 15.8618C4.62588 15.8618 4.66526 15.8215 4.66526 15.7726L4.85935 13.8784L4.66526 11.918C4.66526 11.8633 4.62588 11.823 4.57806 11.823V11.823ZM5.28973 11.7596C5.23629 11.7596 5.18847 11.7999 5.18847 11.8633L5.02532 13.8784L5.18847 15.8302C5.18847 15.8935 5.23629 15.9338 5.28973 15.9338C5.34318 15.9338 5.391 15.8935 5.39944 15.8302L5.57946 13.8784L5.39944 11.8633C5.391 11.7999 5.34318 11.7596 5.28973 11.7596ZM12.0802 8.56711C12.0492 8.54408 12.0014 8.52681 11.962 8.52681C11.9001 8.52681 11.8439 8.54984 11.8045 8.5815C11.7511 8.63044 11.7173 8.70241 11.7117 8.77438V8.79741L11.6188 13.8841L11.6667 14.8197L11.7145 15.7323C11.7229 15.8676 11.8326 15.9798 11.9648 15.9798C12.097 15.9798 12.2067 15.8676 12.2067 15.7323L12.3165 13.8841L12.2067 8.77438C12.1955 8.68802 12.1505 8.60741 12.0802 8.56711V8.56711ZM11.3291 9.00756C11.2897 8.98453 11.2503 8.96725 11.2053 8.96725C11.1603 8.96725 11.1181 8.98453 11.0816 9.00756C11.0197 9.04786 10.9803 9.11983 10.9803 9.20043L10.9719 9.24937L10.8931 13.8784C10.8931 13.8784 10.8931 13.887 10.9803 15.7668V15.7755C10.9803 15.8244 10.9972 15.8705 11.0281 15.9108C11.0759 15.9655 11.1378 16 11.2082 16C11.27 16 11.3263 15.9683 11.3657 15.928C11.4135 15.8877 11.436 15.833 11.436 15.7668L11.4444 15.5739L11.5316 13.887L11.4388 9.20043C11.4304 9.11983 11.391 9.04786 11.3291 9.00756V9.00756ZM8.1955 9.65527C8.1083 9.65527 8.03235 9.73588 8.03235 9.83087L7.90858 13.8784L8.03235 15.8129C8.04079 15.9079 8.11111 15.9798 8.1955 15.9798C8.28832 15.9798 8.35865 15.9079 8.36709 15.8129L8.50773 13.8784L8.36709 9.83087C8.36146 9.73588 8.29114 9.65527 8.1955 9.65527ZM18.7918 11.4631C18.488 11.4631 18.1983 11.5264 17.9311 11.6387C17.751 9.60058 16.0802 8 14.0408 8C13.5401 8 13.0563 8.095 12.6259 8.2706C12.4543 8.33393 12.4065 8.39727 12.4065 8.53544V15.7236C12.4065 15.8676 12.5162 15.9712 12.6484 15.9885H18.789C20.007 15.9885 21 14.9809 21 13.7344C21.0028 12.4793 20.0098 11.4631 18.7918 11.4631V11.4631ZM10.4458 9.72724C10.3277 9.72724 10.2349 9.82224 10.2264 9.95178L10.1336 13.887L10.2264 15.7755C10.2349 15.8964 10.3277 15.9914 10.4458 15.9914C10.564 15.9914 10.6568 15.8964 10.6568 15.7755L10.7665 13.887L10.6568 9.95178C10.6484 9.82224 10.564 9.72724 10.4458 9.72724ZM8.93811 9.5027C8.84529 9.5027 8.75809 9.59194 8.75809 9.69557L8.64838 13.8784L8.75809 15.8042C8.76652 15.9079 8.84529 15.9885 8.93811 15.9885C9.03938 15.9885 9.11814 15.9079 9.12658 15.8042L9.25035 13.8784L9.12658 9.69557C9.11814 9.59194 9.03938 9.5027 8.93811 9.5027V9.5027ZM9.68917 9.60058C9.57946 9.60058 9.49508 9.68982 9.49508 9.79921L9.38537 13.8784L9.49508 15.7899C9.50351 15.9021 9.58228 15.9885 9.68917 15.9885C9.79606 15.9885 9.88326 15.8992 9.88326 15.7899L10.0014 13.8784L9.88326 9.79921C9.88326 9.68694 9.79887 9.60058 9.68917 9.60058V9.60058Z" fill="#6C6C6C"/>
</svg>
