<svg width="24" height="24" viewBox="0 0 24 24" fill="none" xmlns="http://www.w3.org/2000/svg">
<path d="M19.1498 7.98749C19.1612 8.16248 19.1612 8.33751 19.1612 8.5125C19.1612 13.85 15.4493 20 8.66499 20C6.57488 20 4.63326 19.3375 3 18.1875C3.29697 18.225 3.58247 18.2375 3.89086 18.2375C5.61546 18.2375 7.20305 17.6 8.47083 16.5125C6.84899 16.475 5.48985 15.3125 5.02156 13.7125C5.25001 13.75 5.47842 13.775 5.71829 13.775C6.0495 13.775 6.38074 13.725 6.6891 13.6375C4.99875 13.2625 3.73094 11.6375 3.73094 9.67499V9.62501C4.22204 9.92501 4.79315 10.1125 5.39844 10.1375C4.40478 9.41247 3.75379 8.17498 3.75379 6.77497C3.75379 6.02499 3.9365 5.33749 4.25631 4.73748C6.07232 7.18748 8.80203 8.78745 11.8629 8.96248C11.8058 8.66248 11.7716 8.35001 11.7716 8.03751C11.7716 5.81248 13.4162 4 15.4607 4C16.5228 4 17.4822 4.4875 18.1561 5.275C18.9898 5.10001 19.7893 4.76249 20.4975 4.3C20.2233 5.23752 19.6409 6.02502 18.8756 6.52499C19.618 6.43753 20.3376 6.21248 21 5.90001C20.4975 6.69998 19.8693 7.41245 19.1498 7.98749V7.98749Z" fill="#6C6C6C"/>
</svg>
